<?xml version="1.0" encoding="UTF-8" standalone="no"?>
<!-- Created with Inkscape (http://www.inkscape.org/) -->

<svg
   width="164.59268mm"
   height="2.4158199mm"
   viewBox="0 0 164.59268 2.4158199"
   version="1.1"
   id="svg1"
   inkscape:version="1.3 (1:1.3+202307231459+0e150ed6c4)"
   sodipodi:docname="separador.svg"
   xmlns:inkscape="http://www.inkscape.org/namespaces/inkscape"
   xmlns:sodipodi="http://sodipodi.sourceforge.net/DTD/sodipodi-0.dtd"
   xmlns="http://www.w3.org/2000/svg"
   xmlns:svg="http://www.w3.org/2000/svg">
  <sodipodi:namedview
     id="namedview1"
     pagecolor="#ffffff"
     bordercolor="#000000"
     borderopacity="0.25"
     inkscape:showpageshadow="2"
     inkscape:pageopacity="0.0"
     inkscape:pagecheckerboard="0"
     inkscape:deskcolor="#d1d1d1"
     inkscape:document-units="mm"
     labelstyle="below"
     inkscape:zoom="0.94074074"
     inkscape:cx="297.1063"
     inkscape:cy="58.464567"
     inkscape:window-width="1318"
     inkscape:window-height="731"
     inkscape:window-x="48"
     inkscape:window-y="0"
     inkscape:window-maximized="1"
     inkscape:current-layer="layer1" />
  <defs
     id="defs1" />
  <g
     inkscape:label="Layer 1"
     inkscape:groupmode="layer"
     id="layer1"
     transform="translate(-21.870253,-134.21389)">
    <path
       style="fill:#ff8080;stroke-width:0.264583"
       d="m 22.258957,135.99247 c -0.522835,-0.60131 -0.522775,-0.60388 0.02774,-1.19062 0.685645,-0.73077 1.613449,-0.7574 2.049705,-0.0588 0.487329,0.78034 3.623199,0.78034 4.110528,0 0.181758,-0.29104 0.568751,-0.52916 0.859984,-0.52916 0.291233,0 0.733403,0.23812 0.982601,0.52916 0.659369,0.77009 3.49732,0.77009 3.978248,0 0.428341,-0.68588 1.546548,-0.68588 1.974889,0 0.487328,0.78034 3.623199,0.78034 4.110528,0 0.430204,-0.68886 1.544815,-0.68886 1.913485,0 0.238123,0.44494 0.553991,0.52917 1.984375,0.52917 1.430385,0 1.746254,-0.0842 1.984375,-0.52917 0.368671,-0.68886 1.483284,-0.68886 1.913489,0 0.275566,0.44126 0.617013,0.52917 2.055262,0.52917 1.438248,0 1.779696,-0.0879 2.055264,-0.52917 0.428342,-0.68588 1.546548,-0.68588 1.97489,0 0.480928,0.77009 3.318878,0.77009 3.978246,0 0.580054,-0.67745 1.419511,-0.67745 1.842587,0 0.487328,0.78034 3.623199,0.78034 4.110527,0 0.186333,-0.29836 0.617017,-0.52916 0.987444,-0.52916 0.37043,0 0.801113,0.2308 0.987446,0.52916 0.277521,0.44439 0.617014,0.52917 2.118906,0.52917 1.37594,0 1.78844,-0.0874 1.78844,-0.37904 0,-0.20848 0.23812,-0.45463 0.52916,-0.547 0.70903,-0.22504 1.5875,0.0777 1.5875,0.547 0,0.29162 0.4125,0.37904 1.78844,0.37904 1.50189,0 1.84139,-0.0848 2.11891,-0.52917 0.18633,-0.29836 0.61702,-0.52916 0.98744,-0.52916 0.37043,0 0.80112,0.2308 0.98745,0.52916 0.27557,0.44126 0.61701,0.52917 2.05526,0.52917 1.43825,0 1.7797,-0.0879 2.05527,-0.52917 0.18176,-0.29104 0.56875,-0.52916 0.85998,-0.52916 0.29124,0 0.7334,0.23812 0.9826,0.52916 0.65937,0.77009 3.49732,0.77009 3.97825,0 0.42834,-0.68588 1.54655,-0.68588 1.97489,0 0.27557,0.44126 0.61701,0.52917 2.05526,0.52917 1.43825,0 1.7797,-0.0879 2.05527,-0.52917 0.18476,-0.29585 0.61701,-0.52916 0.98037,-0.52916 0.37912,0 0.76791,0.22048 0.93311,0.52916 0.41939,0.78364 3.54937,0.78364 3.96875,0 0.368674,-0.68886 1.483294,-0.68886 1.913494,0 0.27557,0.44126 0.61701,0.52917 2.05526,0.52917 1.43825,0 1.7797,-0.0879 2.05527,-0.52917 0.42834,-0.68588 1.54655,-0.68588 1.97489,0 0.48092,0.77009 3.31887,0.77009 3.97824,0 0.58006,-0.67745 1.41951,-0.67745 1.84259,0 0.27557,0.44126 0.61701,0.52917 2.05526,0.52917 1.43825,0 1.7797,-0.0879 2.05527,-0.52917 0.42834,-0.68588 1.54655,-0.68588 1.97489,0 0.27752,0.44439 0.61701,0.52917 2.1189,0.52917 1.37595,0 1.78844,-0.0874 1.78844,-0.37904 0,-0.20848 0.23813,-0.45463 0.52917,-0.547 0.70903,-0.22504 1.5875,0.0777 1.5875,0.547 0,0.29162 0.41249,0.37904 1.78844,0.37904 1.50189,0 1.84139,-0.0848 2.11891,-0.52917 0.42834,-0.68588 1.54654,-0.68588 1.97489,0 0.27556,0.44126 0.61701,0.52917 2.05526,0.52917 1.43825,0 1.77969,-0.0879 2.05526,-0.52917 0.42308,-0.67745 1.26254,-0.67745 1.84259,0 0.65937,0.77009 3.49732,0.77009 3.97825,0 0.42834,-0.68588 1.54654,-0.68588 1.97489,0 0.27556,0.44126 0.61701,0.52917 2.05526,0.52917 1.43825,0 1.77969,-0.0879 2.05526,-0.52917 0.43021,-0.68886 1.54482,-0.68886 1.91349,0 0.23812,0.44494 0.55399,0.52917 1.98437,0.52917 1.43039,0 1.74626,-0.0842 1.98438,-0.52917 0.36867,-0.68886 1.48328,-0.68886 1.91349,0 0.27556,0.44126 0.61701,0.52917 2.05526,0.52917 1.43825,0 1.77969,-0.0879 2.05526,-0.52917 0.18634,-0.29836 0.61702,-0.52916 0.98745,-0.52916 0.37043,0 0.80111,0.2308 0.98744,0.52916 0.48093,0.77009 3.31888,0.77009 3.97825,0 0.58005,-0.67745 1.41951,-0.67745 1.84259,0 0.27556,0.44126 0.61701,0.52917 2.05526,0.52917 1.43825,0 1.77969,-0.0879 2.05526,-0.52917 0.42835,-0.68588 1.54655,-0.68588 1.97489,0 0.27752,0.44439 0.61702,0.52917 2.11891,0.52917 1.37595,0 1.78844,-0.0874 1.78844,-0.37904 0,-0.20848 0.23812,-0.45463 0.52917,-0.547 0.70903,-0.22504 1.5875,0.0777 1.5875,0.547 0,0.29162 0.41249,0.37904 1.78844,0.37904 1.50189,0 1.84138,-0.0848 2.1189,-0.52917 0.42835,-0.68588 1.54655,-0.68588 1.97489,0 0.18176,0.29105 0.51019,0.53857 0.72985,0.55006 0.35344,0.0185 0.35373,0.0385 0.002,0.1741 -0.21828,0.0843 -0.55245,0.37253 -0.74261,0.64057 -0.4579,0.64547 -1.54993,0.62223 -1.96463,-0.0418 -0.27296,-0.43709 -0.61701,-0.52917 -1.9773,-0.52917 -1.37605,0 -1.69341,0.087 -1.93004,0.52917 -0.39321,0.73471 -1.84788,0.73471 -2.04001,0 -0.12086,-0.46217 -0.36089,-0.52917 -1.89596,-0.52917 -1.47103,0 -1.81146,0.0863 -2.08805,0.52917 -0.42834,0.68588 -1.54654,0.68588 -1.97489,0 -0.27752,-0.44438 -0.61701,-0.52917 -2.1189,-0.52917 -1.35229,0 -1.78844,0.0899 -1.78844,0.36857 0,0.80595 -1.70217,0.9351 -2.11667,0.1606 -0.41727,-0.77969 -3.42043,-0.77969 -3.90735,0 -0.18633,0.29837 -0.61701,0.52917 -0.98744,0.52917 -0.37043,0 -0.80111,-0.2308 -0.98745,-0.52917 -0.27556,-0.44125 -0.61701,-0.52917 -2.05526,-0.52917 -1.43825,0 -1.7797,0.0879 -2.05526,0.52917 -0.43021,0.68887 -1.54482,0.68887 -1.91349,0 -0.23812,-0.44493 -0.55399,-0.52917 -1.98438,-0.52917 -1.43038,0 -1.74625,0.0842 -1.98437,0.52917 -0.36867,0.68887 -1.48328,0.68887 -1.91349,0 -0.27556,-0.44125 -0.61701,-0.52917 -2.05526,-0.52917 -1.43825,0 -1.7797,0.0879 -2.05526,0.52917 -0.42834,0.68588 -1.54655,0.68588 -1.97489,0 -0.27297,-0.43709 -0.61702,-0.52917 -1.97731,-0.52917 -1.37605,0 -1.6934,0.087 -1.93004,0.52917 -0.4145,0.7745 -2.11667,0.64535 -2.11667,-0.1606 0,-0.27868 -0.43615,-0.36857 -1.78843,-0.36857 -1.5019,0 -1.84139,0.0848 -2.11891,0.52917 -0.42834,0.68588 -1.54655,0.68588 -1.97489,0 -0.27659,-0.44289 -0.61702,-0.52917 -2.08805,-0.52917 -1.53507,0 -1.7751,0.067 -1.89596,0.52917 -0.19656,0.75164 -1.76678,0.75164 -1.96334,0 -0.12086,-0.46217 -0.3609,-0.52917 -1.89596,-0.52917 -1.47104,0 -1.81146,0.0863 -2.08805,0.52917 -0.42834,0.68588 -1.54655,0.68588 -1.97489,0 -0.27752,-0.44438 -0.61702,-0.52917 -2.11891,-0.52917 -1.35229,0 -1.78844,0.0899 -1.78844,0.36857 0,0.80595 -1.70217,0.9351 -2.11667,0.1606 -0.41727,-0.77969 -3.42042,-0.77969 -3.90734,0 -0.42834,0.68588 -1.54655,0.68588 -1.97489,0 -0.27557,-0.44125 -0.61702,-0.52917 -2.05527,-0.52917 -1.43824,0 -1.77969,0.0879 -2.05526,0.52917 -0.4302,0.68887 -1.54482,0.68887 -1.913494,0 -0.23812,-0.44493 -0.55399,-0.52917 -1.98437,-0.52917 -1.43038,0 -1.74625,0.0842 -1.98438,0.52917 -0.36867,0.68887 -1.48328,0.68887 -1.91348,0 -0.27557,-0.44125 -0.61702,-0.52917 -2.05527,-0.52917 -1.43824,0 -1.77969,0.0879 -2.05526,0.52917 -0.42834,0.68588 -1.54655,0.68588 -1.97489,0 -0.27297,-0.43709 -0.61701,-0.52917 -1.97731,-0.52917 -1.37604,0 -1.6934,0.087 -1.93004,0.52917 -0.4145,0.7745 -2.11666,0.64535 -2.11666,-0.1606 0,-0.27868 -0.43616,-0.36857 -1.78844,-0.36857 -1.50189,0 -1.84139,0.0848 -2.11891,0.52917 -0.42834,0.68588 -1.54655,0.68588 -1.97489,0 -0.27659,-0.44289 -0.61701,-0.52917 -2.08805,-0.52917 -1.53506,0 -1.7751,0.067 -1.89596,0.52917 -0.19656,0.75164 -1.76678,0.75164 -1.96334,0 -0.12086,-0.46217 -0.36089,-0.52917 -1.89596,-0.52917 -1.471031,0 -1.811455,0.0863 -2.088045,0.52917 -0.428342,0.68588 -1.546548,0.68588 -1.97489,0 -0.277521,-0.44438 -0.617016,-0.52917 -2.118907,-0.52917 -1.352288,0 -1.788441,0.0899 -1.788441,0.36857 0,0.80595 -1.702168,0.9351 -2.116666,0.1606 -0.236633,-0.44216 -0.55399,-0.52917 -1.930038,-0.52917 -1.360294,0 -1.70434,0.0921 -1.977308,0.52917 -0.428342,0.68588 -1.546548,0.68588 -1.97489,0 -0.275568,-0.44125 -0.617016,-0.52917 -2.055264,-0.52917 -1.438249,0 -1.779696,0.0879 -2.055263,0.52917 -0.430204,0.68887 -1.544817,0.68887 -1.913488,0 -0.238121,-0.44493 -0.55399,-0.52917 -1.984375,-0.52917 -1.430384,0 -1.746252,0.0842 -1.984375,0.52917 -0.36867,0.68887 -1.483281,0.68887 -1.913486,0 -0.275567,-0.44125 -0.617015,-0.52917 -2.055264,-0.52917 -1.438248,0 -1.779695,0.0879 -2.055264,0.52917 -0.42834,0.68588 -1.546547,0.68588 -1.974888,0 -0.272969,-0.43709 -0.617016,-0.52917 -1.977308,-0.52917 -1.376048,0 -1.693405,0.087 -1.930039,0.52917 -0.414499,0.7745 -2.116667,0.64535 -2.116667,-0.1606 0,-0.27868 -0.436153,-0.36857 -1.788439,-0.36857 -1.501893,0 -1.841387,0.0848 -2.118908,0.52917 -0.440511,0.70556 -1.430414,0.67056 -2.077323,-0.0734 z"
       id="path3" />
  </g>
</svg>
